<svg id="Layer_1" data-name="Layer 1" xmlns="http://www.w3.org/2000/svg" viewBox="0 0 110 144.26"><defs><style>.cls-1{fill:#fff;}</style></defs><title>Untitled-1</title><path class="cls-1" d="M126.77,169.09l-18-18v13.83a56.77,56.77,0,0,1-41.48-17.43A59.21,59.21,0,0,1,49.83,106,56.77,56.77,0,0,1,67.26,64.5a4.68,4.68,0,0,0-6.61-6.61A68.26,68.26,0,0,0,40.82,106c0,18,7.21,34.86,19.84,48.09a68.26,68.26,0,0,0,48.09,19.84v13.22Z" transform="translate(-40.82 -42.86)"/><path class="cls-1" d="M126.77,42.86V78.92h-12V42.86c-13.22.6-24,12-24,25.85V109a30.05,30.05,0,1,0,60.11,0V68.7C150.82,54.88,140,44.06,126.77,42.86Z" transform="translate(-40.82 -42.86)"/></svg>