<svg id="Layer_1" data-name="Layer 1" xmlns="http://www.w3.org/2000/svg" viewBox="0 0 110 144.26"><defs><style>.cls-1{fill:#fff;}.cls-2{fill:#0078d7;}</style></defs><title>Untitled-3</title><path class="cls-1" d="M130.77,154.1l-18-18v13.83a56.77,56.77,0,0,1-41.48-17.43A59.21,59.21,0,0,1,53.83,91,56.77,56.77,0,0,1,71.26,49.51a4.68,4.68,0,0,0-6.61-6.61A68.26,68.26,0,0,0,44.81,91c0,18,7.21,34.86,19.84,48.09a68.26,68.26,0,0,0,48.09,19.84v13.22Z" transform="translate(-44.81 -27.87)"/><path class="cls-1" d="M130.77,27.87V63.93h-12V27.87c-13.22.6-24,12-24,25.85V94a30.05,30.05,0,1,0,60.11,0V53.72C154.81,39.89,144,29.07,130.77,27.87Z" transform="translate(-44.81 -27.87)"/><path class="cls-2" d="M131.27,64.44v-36a25.53,25.53,0,0,1,23,25.29V64.44h-23Z" transform="translate(-44.81 -27.87)"/><path class="cls-1" d="M131.77,29a25,25,0,0,1,22,24.73V63.94h-22V29m-1-1.12V64.94h24V53.72c0-13.83-10.82-24.64-24-25.85h0Z" transform="translate(-44.81 -27.87)"/></svg>